{"glyphs":{":":{"x_min":0,"x_max":454,"ha":454,"o":"m 317 406 l 199 406 l 231 545 l 349 545 z m 223 0 l 105 0 l 138 139 l 255 139 z"},"$":{"x_min":0,"x_max":636,"ha":636,"o":"m 292 0 l 250 -176 l 193 -176 l 233 -2 q 172 -1 120 12 q 68 25 29 44 l 50 133 l 58 133 q 68 124 83 114 q 99 104 126 94 q 147 85 179 77 q 211 69 250 68 l 299 283 q 283 287 270 290 q 256 293 240 298 q 175 315 146 351 q 117 387 117 433 q 117 513 186 570 q 255 626 377 637 l 408 770 l 466 770 l 436 638 q 485 636 531 624 q 578 612 610 598 l 589 510 l 582 510 q 548 536 509 551 q 470 566 419 569 l 371 355 q 382 353 397 349 q 412 345 426 341 q 488 325 521 292 q 553 260 553 212 q 553 125 484 68 q 415 11 292 0 z m 315 363 l 362 569 q 290 563 251 531 q 212 500 212 449 q 212 417 235 397 q 257 376 315 363 z m 457 190 q 457 225 432 244 q 407 264 354 274 l 307 69 q 377 74 417 103 q 457 133 457 190 z"},"?":{"x_min":0,"x_max":545,"ha":545,"o":"m 474 413 q 437 379 391 353 q 345 326 293 301 l 269 195 l 182 195 l 216 344 q 252 361 302 387 q 351 413 379 436 q 418 468 436 500 q 454 533 454 574 q 454 617 423 639 q 391 662 339 662 q 292 662 241 647 q 190 632 153 611 l 148 611 l 170 707 q 207 720 261 731 q 315 742 362 742 q 455 742 505 701 q 556 660 556 593 q 556 536 534 492 q 512 447 474 413 z m 231 0 l 132 0 l 156 103 l 255 103 z"},"<":{"x_min":0,"x_max":818,"ha":818,"o":"m 708 38 l 145 288 l 145 349 l 708 599 l 708 511 l 264 318 l 708 125 z"},"'":{"x_min":0,"x_max":269,"ha":269,"o":"m 302 760 l 213 477 l 147 477 l 194 760 z"},"=":{"x_min":0,"x_max":818,"ha":818,"o":"m 720 382 l 141 382 l 141 460 l 720 460 z m 720 177 l 141 177 l 141 255 l 720 255 z"},"a":{"x_min":0,"x_max":601,"ha":601,"o":"m 427 288 q 352 285 293 276 q 235 268 197 251 q 157 235 137 208 q 116 180 116 139 q 116 104 140 85 q 164 67 214 67 q 259 67 305 87 q 351 106 391 134 z m 374 58 q 360 50 338 36 q 315 21 292 11 q 267 0 236 -8 q 205 -15 165 -15 q 100 -15 60 23 q 19 61 19 122 q 19 187 48 231 q 76 276 132 304 q 188 332 265 344 q 343 357 443 360 q 446 374 448 384 q 450 394 450 404 q 450 428 440 442 q 431 457 414 466 q 397 475 374 478 q 352 481 324 481 q 283 481 229 468 q 176 454 143 441 l 138 441 l 156 533 q 184 540 238 549 q 292 559 341 559 q 442 559 493 527 q 544 495 544 426 q 544 413 542 398 q 540 383 537 370 l 451 0 l 360 0 z"},"L":{"x_min":0,"x_max":557,"ha":557,"o":"m 495 0 l 34 0 l 202 727 l 300 727 l 151 83 l 514 83 z"},"3":{"x_min":0,"x_max":636,"ha":636,"o":"m 465 64 q 422 26 366 6 q 310 -15 236 -15 q 177 -15 122 0 q 66 15 28 35 l 51 129 l 59 129 q 92 104 143 85 q 194 66 250 66 q 338 66 395 118 q 451 170 451 254 q 451 305 415 331 q 379 356 304 356 l 258 356 l 277 434 l 323 434 q 406 434 458 471 q 511 509 511 574 q 511 615 480 638 q 448 661 387 661 q 336 661 278 643 q 221 624 176 598 l 171 598 l 192 696 q 231 713 292 728 q 352 742 406 742 q 502 742 558 704 q 613 666 613 599 q 613 527 560 471 q 506 415 425 400 l 425 395 q 444 391 467 381 q 490 370 508 354 q 526 337 539 312 q 551 287 551 252 q 551 199 528 149 q 505 100 465 64 z"},";":{"x_min":0,"x_max":454,"ha":454,"o":"m 317 406 l 199 406 l 231 545 l 349 545 z m 294 139 l 83 -181 l 11 -181 l 169 139 z"},"J":{"x_min":0,"x_max":455,"ha":455,"o":"m 346 189 q 324 93 254 41 q 185 -10 86 -10 q 63 -10 25 -6 q -13 -2 -38 4 l -18 91 l -12 91 q 7 84 34 77 q 62 69 92 69 q 137 69 166 81 q 195 92 212 112 q 229 133 240 162 q 250 191 257 226 l 355 653 l 197 653 l 214 727 l 470 727 z"},"V":{"x_min":0,"x_max":683,"ha":683,"o":"m 767 727 l 334 0 l 206 0 l 109 727 l 209 727 l 289 88 l 664 727 z"},"\"":{"x_min":0,"x_max":459,"ha":459,"o":"m 491 760 l 402 477 l 337 477 l 384 760 z m 302 760 l 213 477 l 149 477 l 196 760 z"},"7":{"x_min":0,"x_max":636,"ha":636,"o":"m 651 618 l 184 0 l 73 0 l 570 645 l 156 645 l 174 727 l 676 727 z"},"S":{"x_min":0,"x_max":684,"ha":684,"o":"m 286 -13 q 215 -13 151 2 q 87 17 25 47 l 49 158 l 56 158 q 103 114 171 90 q 239 66 302 66 q 406 66 462 108 q 517 149 517 213 q 517 247 497 269 q 478 292 439 302 q 408 311 364 319 q 320 327 281 336 q 204 354 162 395 q 120 437 120 498 q 120 602 208 671 q 296 740 436 740 q 512 740 574 724 q 637 708 682 687 l 660 583 l 653 583 q 618 615 554 638 q 490 661 419 661 q 330 661 277 622 q 224 583 224 522 q 224 490 243 466 q 262 441 311 429 q 342 422 394 411 q 446 401 481 392 q 550 373 586 335 q 622 297 622 240 q 622 192 599 145 q 575 98 533 64 q 488 28 428 7 q 368 -13 286 -13 z"},"}":{"x_min":0,"x_max":635,"ha":635,"o":"m 561 315 l 544 243 l 519 243 q 436 243 386 197 q 337 151 319 65 l 304 -4 q 284 -95 224 -143 q 163 -191 66 -191 l -7 -191 l 6 -127 l 62 -127 q 128 -127 165 -96 q 202 -65 217 6 l 234 86 q 242 124 259 153 q 276 182 301 206 q 325 229 355 245 q 385 261 416 273 l 419 285 q 367 309 340 344 q 312 380 312 428 q 312 457 327 519 q 343 581 343 612 q 343 656 316 676 q 290 696 239 696 l 183 696 l 197 760 l 270 760 q 344 760 387 725 q 430 689 430 623 q 430 600 425 575 q 420 550 415 529 q 410 510 405 482 q 399 455 399 432 q 399 376 431 346 q 462 315 536 315 z"},"Z":{"x_min":0,"x_max":685,"ha":685,"o":"m 568 0 l 1 0 l 21 89 l 584 645 l 158 645 l 177 727 l 721 727 l 701 643 l 133 83 l 587 83 z"},"x":{"x_min":0,"x_max":592,"ha":592,"o":"m 247 276 l 94 545 l 197 545 l 310 337 l 513 545 l 626 545 l 347 271 l 500 0 l 396 0 l 284 209 l 79 0 l -34 0 z"},")":{"x_min":0,"x_max":454,"ha":454,"o":"m 387 432 q 387 340 364 252 q 341 164 298 83 q 256 3 198 -68 q 140 -140 71 -201 l -39 -201 l -39 -196 q 17 -154 77 -93 q 137 -32 186 47 q 241 137 269 227 q 297 317 297 415 q 297 519 266 607 q 236 694 183 755 l 183 760 l 286 760 q 330 689 358 606 q 387 523 387 432 z"},"&":{"x_min":0,"x_max":727,"ha":727,"o":"m 702 0 l 587 0 l 499 108 q 434 41 371 13 q 309 -15 243 -15 q 155 -15 99 33 q 43 82 43 160 q 43 210 60 250 q 77 289 106 322 q 133 352 168 375 q 204 398 236 414 q 205 441 182 474 q 160 506 160 545 q 160 582 174 615 q 188 647 219 678 q 248 706 293 724 q 337 742 394 742 q 470 742 517 704 q 563 667 563 606 q 563 586 555 557 q 547 527 526 500 q 504 471 466 446 q 428 421 364 404 l 514 225 q 539 265 555 323 q 570 381 582 444 l 680 444 l 670 397 q 658 341 630 284 q 602 228 558 173 z m 437 511 q 450 531 456 554 q 462 577 462 602 q 462 640 437 662 q 411 685 377 685 q 325 685 292 648 q 258 611 258 560 q 258 532 274 505 q 290 478 330 444 q 370 455 396 472 q 421 489 437 511 z m 461 152 l 275 378 q 262 372 237 355 q 212 337 196 319 q 176 298 163 265 q 149 233 149 192 q 149 132 183 97 q 217 61 282 61 q 329 61 375 83 q 420 105 461 152 z"},"_":{"x_min":0,"x_max":636,"ha":636,"o":"m 555 -88 l 541 -146 l -99 -146 l -85 -88 z"},"v":{"x_min":0,"x_max":591,"ha":591,"o":"m 618 545 l 271 0 l 180 0 l 87 545 l 181 545 l 250 111 l 517 545 z"},"O":{"x_min":0,"x_max":787,"ha":787,"o":"m 763 470 q 763 375 735 287 q 706 199 652 132 q 596 63 518 24 q 440 -15 342 -15 q 212 -15 139 56 q 65 127 65 258 q 65 357 95 444 q 124 530 179 598 q 233 664 312 703 q 392 742 486 742 q 616 742 689 672 q 763 601 763 470 z m 578 181 q 619 236 640 305 q 661 374 661 456 q 661 556 611 609 q 561 663 471 663 q 401 663 345 631 q 289 599 249 544 q 209 490 188 419 q 167 348 167 273 q 167 172 218 118 q 268 64 358 64 q 427 64 483 96 q 540 128 578 181 z"},"(":{"x_min":0,"x_max":454,"ha":454,"o":"m 273 -201 l 170 -201 q 126 -130 98 -47 q 69 36 69 126 q 69 219 92 305 q 114 392 158 475 q 199 554 257 625 q 315 696 385 760 l 495 760 l 495 755 q 439 714 379 651 q 319 588 271 512 q 221 434 190 341 q 159 247 159 144 q 159 38 190 -50 q 221 -137 273 -196 z"},"C":{"x_min":0,"x_max":698,"ha":698,"o":"m 360 -13 q 222 -13 144 58 q 65 130 65 261 q 65 362 95 449 q 125 536 182 601 q 238 666 320 703 q 402 740 503 740 q 566 740 623 725 q 679 709 738 676 l 716 567 l 708 567 q 692 583 676 597 q 660 611 627 627 q 600 642 563 651 q 526 661 481 661 q 413 661 355 632 q 298 604 256 552 q 215 502 192 431 q 168 360 168 279 q 168 179 221 123 q 273 67 372 67 q 418 67 460 77 q 501 88 536 104 q 567 119 593 136 q 618 152 636 167 l 643 167 l 620 54 q 569 28 502 8 q 436 -13 360 -13 z"},"W":{"x_min":0,"x_max":990,"ha":990,"o":"m 1044 727 l 695 0 l 583 0 l 562 602 l 279 0 l 172 0 l 142 727 l 240 727 l 260 124 l 544 727 l 643 727 l 662 118 l 949 727 z"},"A":{"x_min":0,"x_max":683,"ha":683,"o":"m 616 0 l 518 0 l 493 205 l 180 205 l 61 0 l -42 0 l 391 727 l 519 727 z m 482 284 l 437 643 l 226 284 z"},"f":{"x_min":0,"x_max":352,"ha":352,"o":"m 471 674 l 466 674 q 452 679 429 684 q 405 688 387 688 q 327 688 297 658 q 267 627 251 564 l 247 545 l 413 545 l 395 472 l 232 472 l 126 0 l 33 0 l 140 472 l 78 472 l 95 545 l 157 545 l 161 563 q 181 659 240 712 q 298 765 390 765 q 420 765 445 762 q 470 759 490 755 z"},"Q":{"x_min":0,"x_max":787,"ha":787,"o":"m 578 180 q 619 236 640 305 q 661 374 661 456 q 661 556 611 609 q 561 663 471 663 q 401 663 345 631 q 289 599 249 544 q 209 490 189 419 q 168 348 168 273 q 168 172 218 118 q 268 64 358 64 q 427 64 483 96 q 540 127 578 180 z m 481 10 q 480 1 479 -8 q 478 -18 478 -23 q 478 -74 503 -93 q 527 -111 574 -111 q 598 -111 623 -106 q 648 -100 665 -94 l 678 -94 l 661 -178 q 631 -186 602 -189 q 573 -192 543 -192 q 468 -192 427 -155 q 385 -117 385 -48 q 385 -39 386 -31 q 387 -22 388 -12 q 377 -13 366 -14 q 355 -15 342 -15 q 212 -15 138 56 q 65 127 65 258 q 65 354 94 443 q 124 531 179 598 q 232 664 312 703 q 392 742 486 742 q 616 742 690 672 q 764 601 764 470 q 764 315 688 187 q 613 59 481 10 z"},"w":{"x_min":0,"x_max":818,"ha":818,"o":"m 833 545 l 579 0 l 493 0 l 438 421 l 213 0 l 128 0 l 94 545 l 188 545 l 202 124 l 425 545 l 501 545 l 555 124 l 736 545 z"},"-":{"x_min":0,"x_max":454,"ha":454,"o":"m 380 274 l 75 274 l 96 362 l 400 362 z"},"E":{"x_min":0,"x_max":632,"ha":632,"o":"m 681 727 l 662 645 l 280 645 l 233 439 l 615 439 l 596 357 l 214 357 l 150 83 l 533 83 l 514 0 l 35 0 l 202 727 z"},"s":{"x_min":0,"x_max":521,"ha":521,"o":"m 198 -13 q 137 -13 89 2 q 41 17 8 35 l 29 133 l 34 133 q 44 124 60 112 q 77 100 102 88 q 125 77 155 69 q 184 61 218 61 q 287 61 326 86 q 365 112 365 161 q 365 187 345 201 q 325 215 287 224 q 268 228 241 233 q 215 239 188 246 q 130 262 103 293 q 76 323 76 367 q 76 405 92 438 q 109 472 142 500 q 173 526 221 542 q 270 559 329 559 q 377 559 426 546 q 475 534 505 516 l 486 422 l 481 422 q 473 429 457 439 q 441 450 417 461 q 396 471 368 478 q 340 484 310 484 q 249 484 210 459 q 172 433 172 389 q 172 364 191 348 q 209 332 248 322 q 271 316 298 311 q 324 306 348 300 q 405 286 433 256 q 462 227 462 182 q 462 144 444 108 q 426 72 393 46 q 358 18 309 2 q 259 -13 198 -13 z"},">":{"x_min":0,"x_max":818,"ha":818,"o":"m 715 288 l 152 38 l 152 125 l 596 318 l 152 511 l 152 599 l 715 349 z"},"l":{"x_min":0,"x_max":274,"ha":274,"o":"m 296 760 l 120 0 l 28 0 l 204 760 z"},"8":{"x_min":0,"x_max":636,"ha":636,"o":"m 490 62 q 449 26 396 5 q 343 -17 271 -17 q 167 -17 106 34 q 44 84 44 164 q 44 237 89 296 q 133 355 218 390 l 218 393 q 174 419 152 452 q 130 485 130 527 q 130 615 212 679 q 293 744 409 744 q 505 744 561 700 q 617 656 617 588 q 617 529 577 473 q 537 417 460 386 l 460 383 q 515 357 543 321 q 571 285 571 230 q 571 188 549 142 q 528 96 490 62 z m 519 576 q 519 618 485 647 q 451 675 395 675 q 326 675 279 638 q 231 602 231 546 q 231 518 247 495 q 263 472 294 455 q 312 446 341 433 q 370 420 404 409 q 465 445 492 486 q 519 526 519 576 z m 424 107 q 446 130 457 159 q 468 188 468 218 q 468 251 450 276 q 433 300 390 322 q 369 332 344 341 q 318 351 275 367 q 213 337 180 287 q 147 237 147 181 q 147 126 184 90 q 221 53 282 53 q 332 53 367 68 q 403 83 424 107 z"},"\\":{"x_min":0,"x_max":454,"ha":454,"o":"m 393 -148 l 312 -148 l 122 760 l 205 760 z"},"e":{"x_min":0,"x_max":596,"ha":596,"o":"m 469 332 q 471 346 472 356 q 473 366 473 377 q 473 430 445 459 q 416 488 353 488 q 284 488 230 445 q 176 402 157 332 z m 285 -13 q 172 -13 107 41 q 43 94 43 196 q 43 346 138 453 q 232 561 372 561 q 465 561 514 514 q 563 468 563 385 q 563 370 559 338 q 555 307 546 265 l 144 265 q 141 250 140 237 q 139 223 139 211 q 139 143 181 103 q 223 64 300 64 q 354 64 410 85 q 467 106 506 132 l 511 132 l 491 33 q 467 24 447 17 q 428 10 397 2 q 367 -5 344 -9 q 320 -13 285 -13 z"},"b":{"x_min":0,"x_max":623,"ha":623,"o":"m 582 373 q 582 293 557 221 q 532 149 490 98 q 447 44 393 14 q 339 -15 274 -15 q 231 -15 193 -4 q 155 8 125 27 l 113 0 l 27 0 l 203 760 l 294 760 l 232 488 q 277 520 321 540 q 364 561 417 561 q 497 561 539 511 q 582 462 582 373 z m 431 154 q 458 196 472 247 q 485 298 485 355 q 485 414 460 445 q 435 477 379 477 q 338 477 295 457 q 251 437 214 411 l 142 99 q 173 83 203 73 q 232 64 273 64 q 324 64 364 89 q 404 114 431 154 z"},"%":{"x_min":0,"x_max":1076,"ha":1076,"o":"m 239 310 q 167 310 129 346 q 92 382 92 454 q 92 582 154 661 q 215 741 321 741 q 393 741 430 704 q 467 667 467 596 q 467 473 407 391 q 348 310 239 310 z m 353 447 q 367 480 374 518 q 380 557 380 597 q 380 637 364 658 q 347 678 308 678 q 273 678 248 658 q 223 637 207 604 q 193 575 186 535 q 178 495 178 454 q 178 415 195 393 q 211 372 251 372 q 287 372 312 393 q 337 413 353 447 z m 791 -14 q 718 -14 681 22 q 644 59 644 130 q 644 258 705 338 q 767 417 873 417 q 944 417 981 380 q 1019 343 1019 272 q 1019 149 959 68 q 899 -14 791 -14 z m 904 123 q 919 156 926 195 q 932 233 932 273 q 932 313 916 334 q 899 354 860 354 q 825 354 800 334 q 775 313 759 280 q 745 251 737 211 q 730 171 730 130 q 730 91 746 70 q 763 48 803 48 q 838 48 864 69 q 889 89 904 123 z m 851 727 l 342 0 l 261 0 l 770 727 z"},"m":{"x_min":0,"x_max":973,"ha":973,"o":"m 914 425 q 914 409 912 391 q 910 373 905 354 l 823 0 l 731 0 l 803 311 q 809 336 813 358 q 816 380 816 399 q 816 437 798 457 q 779 477 727 477 q 688 477 646 455 q 603 434 560 405 q 559 393 557 377 q 555 361 552 349 l 471 0 l 379 0 l 451 311 q 458 341 461 360 q 465 379 465 399 q 465 444 441 460 q 417 477 375 477 q 346 477 310 462 q 273 447 213 407 l 119 0 l 27 0 l 153 545 l 245 545 l 231 485 q 282 521 326 541 q 370 561 418 561 q 473 561 508 537 q 542 514 553 472 q 618 519 669 540 q 720 561 770 561 q 842 561 878 525 q 914 489 914 425 z"},"#":{"x_min":0,"x_max":818,"ha":818,"o":"m 759 455 l 597 455 l 522 271 l 673 271 l 663 206 l 495 206 l 412 0 l 349 0 l 432 206 l 300 206 l 217 0 l 154 0 l 237 206 l 92 206 l 102 271 l 265 271 l 339 455 l 188 455 l 199 521 l 366 521 l 450 727 l 513 727 l 429 521 l 561 521 l 645 727 l 708 727 l 624 521 l 770 521 z m 535 456 l 401 456 l 326 271 l 460 271 z"},",":{"x_min":0,"x_max":364,"ha":364,"o":"m 254 139 l 42 -181 l -29 -181 l 129 139 z"},"n":{"x_min":0,"x_max":633,"ha":633,"o":"m 574 421 q 574 409 572 389 q 569 369 565 354 l 483 0 l 392 0 l 463 311 q 469 336 472 356 q 476 375 476 394 q 476 435 455 456 q 435 477 382 477 q 345 477 301 456 q 256 436 213 407 l 119 0 l 27 0 l 153 545 l 245 545 l 231 485 q 283 521 329 541 q 375 561 423 561 q 494 561 534 525 q 574 489 574 421 z"},"h":{"x_min":0,"x_max":633,"ha":633,"o":"m 574 421 q 574 409 572 389 q 569 369 565 354 l 483 0 l 392 0 l 463 311 q 469 336 472 356 q 476 375 476 394 q 476 435 455 456 q 435 477 382 477 q 345 477 301 456 q 256 436 213 407 l 119 0 l 27 0 l 203 760 l 294 760 l 231 485 q 283 521 329 541 q 375 561 423 561 q 494 561 534 525 q 574 489 574 421 z"},"z":{"x_min":0,"x_max":525,"ha":525,"o":"m 425 0 l -15 0 l 0 68 l 406 472 l 94 472 l 111 545 l 538 545 l 523 480 l 116 73 l 442 73 z"},"B":{"x_min":0,"x_max":686,"ha":686,"o":"m 528 59 q 480 27 429 13 q 377 0 301 0 l 34 0 l 202 727 l 411 727 q 490 727 529 722 q 568 716 600 697 q 627 680 640 655 q 654 629 654 598 q 654 535 618 486 q 583 438 520 412 l 520 408 q 578 395 609 358 q 640 322 640 266 q 640 204 609 148 q 578 93 528 59 z m 549 571 q 549 591 542 605 q 535 618 522 627 q 502 641 471 644 q 440 648 392 648 l 281 648 l 231 432 l 358 432 q 400 432 432 438 q 463 444 486 458 q 517 475 533 508 q 549 540 549 571 z m 538 259 q 538 286 529 303 q 520 320 496 334 q 476 347 446 351 q 415 354 361 354 l 214 354 l 150 79 l 283 79 q 348 79 389 86 q 430 93 459 111 q 498 134 518 174 q 538 214 538 259 z"},"K":{"x_min":0,"x_max":693,"ha":693,"o":"m 627 0 l 513 0 l 289 325 l 189 240 l 134 0 l 37 0 l 205 727 l 302 727 l 214 350 l 642 727 l 765 727 l 366 379 z"},"R":{"x_min":0,"x_max":695,"ha":695,"o":"m 534 546 q 534 572 526 590 q 518 608 502 621 q 483 636 457 642 q 430 647 391 647 l 281 647 l 216 367 l 319 367 q 367 367 402 376 q 437 385 466 407 q 498 431 516 468 q 534 505 534 546 z m 642 0 l 528 0 l 337 291 l 199 291 l 132 0 l 34 0 l 202 727 l 400 727 q 466 727 508 719 q 549 710 580 688 q 607 667 623 639 q 639 611 639 568 q 639 478 582 409 q 525 340 433 313 z"},"T":{"x_min":0,"x_max":616,"ha":616,"o":"m 702 645 l 443 645 l 294 0 l 196 0 l 345 645 l 86 645 l 104 727 l 721 727 z"},"P":{"x_min":0,"x_max":603,"ha":603,"o":"m 535 346 q 490 309 434 291 q 379 272 301 272 l 195 272 l 132 0 l 34 0 l 202 727 l 394 727 q 460 727 503 715 q 547 704 575 682 q 604 660 619 628 q 634 597 634 552 q 634 493 608 439 q 582 386 535 346 z m 530 536 q 530 561 522 582 q 514 604 496 617 q 475 633 447 640 q 418 647 372 647 l 282 647 l 213 351 l 300 351 q 358 351 397 362 q 436 373 464 396 q 498 424 514 458 q 530 493 530 536 z"},"|":{"x_min":0,"x_max":454,"ha":454,"o":"m 291 -191 l 206 -191 l 206 760 l 291 760 z"},"t":{"x_min":0,"x_max":394,"ha":394,"o":"m 437 545 l 420 471 l 230 471 l 172 220 q 167 201 163 176 q 159 151 159 137 q 159 101 177 84 q 195 66 244 66 q 264 66 292 73 q 319 80 329 84 l 334 84 l 317 5 q 290 -2 259 -6 q 228 -11 204 -11 q 136 -11 99 19 q 62 48 62 112 q 62 128 65 143 q 67 159 71 178 l 139 471 l 77 471 l 93 545 l 155 545 l 192 702 l 284 702 l 247 545 z"},"M":{"x_min":0,"x_max":843,"ha":843,"o":"m 683 0 l 585 0 l 729 618 l 433 200 l 375 200 l 273 637 l 125 0 l 34 0 l 202 727 l 335 727 l 433 322 l 716 727 l 851 727 z"},"g":{"x_min":0,"x_max":622,"ha":622,"o":"m 594 545 l 483 61 q 451 -78 378 -142 q 304 -207 173 -207 q 131 -207 89 -200 q 46 -194 10 -183 l 31 -92 l 36 -92 q 63 -104 110 -115 q 156 -126 197 -126 q 244 -126 276 -115 q 309 -103 330 -82 q 350 -62 363 -34 q 376 -7 383 26 l 395 74 q 345 41 308 25 q 270 8 211 8 q 132 8 87 57 q 42 105 42 194 q 42 265 65 331 q 88 398 130 450 q 170 500 227 530 q 284 561 349 561 q 396 561 433 550 q 470 539 497 522 l 508 545 z m 480 447 q 449 463 416 472 q 383 481 349 481 q 301 481 262 460 q 223 438 194 399 q 167 363 153 312 q 138 261 138 210 q 138 153 164 121 q 190 90 249 90 q 289 90 331 107 q 372 124 412 150 z"},"j":{"x_min":0,"x_max":344,"ha":344,"o":"m 345 637 l 241 637 l 263 732 l 367 732 z m 189 -13 q 167 -108 111 -157 q 55 -207 -28 -207 q -47 -207 -79 -203 q -111 -199 -131 -193 l -112 -109 l -107 -109 q -93 -116 -74 -122 q -55 -128 -29 -128 q 5 -128 28 -117 q 51 -107 66 -86 q 80 -65 89 -35 q 99 -4 106 29 l 208 472 l 94 472 l 111 545 l 318 545 z"},"i":{"x_min":0,"x_max":274,"ha":274,"o":"m 295 732 l 273 637 l 169 637 l 191 732 z m 246 545 l 120 0 l 28 0 l 154 545 z"},"y":{"x_min":0,"x_max":591,"ha":591,"o":"m 126 -201 l 25 -201 l 184 32 l 85 545 l 179 545 l 256 140 l 517 545 l 617 545 z"},"@":{"x_min":0,"x_max":1000,"ha":1000,"o":"m 810 77 l 585 77 l 585 133 q 546 104 510 89 q 475 73 434 73 q 368 73 330 115 q 292 157 292 236 q 292 308 314 366 q 337 424 375 465 q 409 505 458 528 q 506 551 551 551 q 586 551 617 542 q 648 534 675 519 l 680 542 l 758 542 l 662 131 l 788 131 q 829 186 851 266 q 872 347 872 408 q 872 538 797 609 q 722 679 587 679 q 500 679 423 644 q 346 608 288 547 q 231 487 198 406 q 164 325 164 238 q 164 107 242 29 q 321 -49 458 -49 q 500 -49 549 -43 q 598 -37 635 -26 l 622 -92 q 575 -102 537 -106 q 500 -110 447 -110 q 287 -110 190 -19 q 94 73 94 225 q 94 331 135 425 q 175 520 244 590 q 311 659 403 700 q 496 742 595 742 q 757 742 848 656 q 939 570 939 417 q 939 323 906 235 q 872 146 810 77 z m 599 199 l 660 457 q 633 470 607 477 q 581 483 551 483 q 478 483 427 418 q 376 353 376 249 q 376 199 398 172 q 419 145 468 145 q 501 145 535 162 q 569 178 599 199 z"},".":{"x_min":0,"x_max":364,"ha":364,"o":"m 178 0 l 60 0 l 92 139 l 210 139 z"},"p":{"x_min":0,"x_max":623,"ha":623,"o":"m 582 373 q 582 292 556 221 q 531 149 490 100 q 448 48 392 19 q 336 -11 273 -11 q 229 -11 193 -1 q 156 9 125 28 l 73 -201 l -19 -201 l 153 545 l 245 545 l 232 488 q 277 520 321 540 q 365 561 418 561 q 498 561 540 511 q 582 462 582 373 z m 485 355 q 485 414 460 445 q 435 477 379 477 q 338 477 295 457 q 251 437 214 411 l 143 102 q 174 85 203 77 q 232 68 273 68 q 323 68 364 93 q 404 117 430 156 q 458 197 472 248 q 485 298 485 355 z"},"X":{"x_min":0,"x_max":685,"ha":685,"o":"m 312 366 l 145 727 l 250 727 l 382 437 l 649 727 l 758 727 l 418 365 l 588 0 l 482 0 l 349 294 l 78 0 l -30 0 z"},"*":{"x_min":0,"x_max":636,"ha":636,"o":"m 613 434 l 583 383 l 406 489 l 409 311 l 349 311 l 352 489 l 174 383 l 144 434 l 332 535 l 144 637 l 174 688 l 352 582 l 349 760 l 409 760 l 405 583 l 583 687 l 613 636 l 426 536 z"},"Y":{"x_min":0,"x_max":615,"ha":615,"o":"m 714 727 l 366 319 l 292 0 l 195 0 l 266 309 l 104 727 l 208 727 l 333 400 l 608 727 z"},"c":{"x_min":0,"x_max":521,"ha":521,"o":"m 264 -12 q 212 -12 172 0 q 132 12 103 39 q 74 64 58 103 q 42 141 42 192 q 42 269 66 335 q 90 402 134 452 q 177 501 239 530 q 302 558 374 558 q 422 558 464 545 q 506 532 539 514 l 519 415 l 513 415 q 503 423 489 435 q 474 447 454 457 q 434 468 410 475 q 385 482 354 482 q 259 482 199 402 q 140 322 140 207 q 140 138 175 101 q 210 64 276 64 q 307 64 337 73 q 368 82 390 92 q 414 103 434 116 q 455 128 464 135 l 469 135 l 450 35 q 407 16 360 2 q 312 -12 264 -12 z"},"!":{"x_min":0,"x_max":394,"ha":394,"o":"m 356 727 l 222 200 l 139 200 l 247 727 z m 184 0 l 84 0 l 108 103 l 208 103 z"},"/":{"x_min":0,"x_max":454,"ha":454,"o":"m 509 760 l -3 -148 l -91 -148 l 420 760 z"},"[":{"x_min":0,"x_max":454,"ha":454,"o":"m 264 -191 l 10 -191 l 229 760 l 483 760 l 468 693 l 299 693 l 110 -125 l 279 -125 z"},"6":{"x_min":0,"x_max":636,"ha":636,"o":"m 291 -15 q 184 -15 125 51 q 65 117 65 232 q 65 337 95 428 q 125 520 183 590 q 239 659 323 700 q 408 741 512 741 q 543 741 563 737 q 584 734 598 729 l 581 643 l 576 643 q 564 648 537 654 q 510 660 481 660 q 377 660 295 592 q 214 524 186 415 q 228 439 276 453 q 325 466 373 466 q 417 466 454 455 q 491 444 521 419 q 552 393 567 357 q 582 321 582 274 q 582 154 499 69 q 417 -15 291 -15 z m 480 263 q 480 325 444 357 q 408 390 336 390 q 299 390 257 378 q 215 367 174 346 q 169 325 166 292 q 163 260 163 229 q 163 182 175 149 q 188 117 206 99 q 225 79 250 70 q 275 61 302 61 q 381 61 431 117 q 480 172 480 263 z"},"r":{"x_min":0,"x_max":427,"ha":427,"o":"m 468 449 l 463 449 q 443 454 427 456 q 410 458 386 458 q 340 458 295 437 q 250 417 208 387 l 120 0 l 27 0 l 152 545 l 245 545 l 226 465 q 291 510 336 528 q 381 545 423 545 q 447 545 458 544 q 468 543 489 540 z"},"2":{"x_min":0,"x_max":636,"ha":636,"o":"m 509 0 l 17 0 l 40 102 q 108 152 156 188 q 205 223 272 277 q 392 373 441 438 q 490 503 490 564 q 490 612 456 637 q 422 661 369 661 q 325 661 269 645 q 213 628 160 598 l 155 598 l 174 697 q 213 714 273 728 q 333 742 388 742 q 486 742 540 699 q 593 657 593 584 q 593 505 548 435 q 503 365 391 272 q 324 217 253 165 q 183 113 137 80 l 527 80 z"},"{":{"x_min":0,"x_max":635,"ha":635,"o":"m 444 -191 l 371 -191 q 297 -191 254 -156 q 211 -121 211 -55 q 211 -30 216 -7 q 221 17 226 39 q 232 63 237 87 q 241 111 241 137 q 241 192 210 223 q 178 253 105 253 l 80 253 l 97 325 l 122 325 q 203 325 253 371 q 304 416 322 503 l 336 572 q 355 662 417 711 q 479 760 575 760 l 648 760 l 634 696 l 579 696 q 509 696 473 662 q 437 627 424 562 l 407 482 q 391 410 343 365 q 296 321 225 295 l 221 283 q 272 261 300 225 q 329 189 329 140 q 329 111 313 48 q 298 -14 298 -43 q 298 -85 323 -106 q 347 -127 402 -127 l 458 -127 z"},"9":{"x_min":0,"x_max":636,"ha":636,"o":"m 609 495 q 609 391 579 297 q 548 203 491 135 q 432 64 349 25 q 266 -14 163 -14 q 136 -14 115 -11 q 94 -9 77 -3 l 94 83 l 99 83 q 111 78 136 72 q 162 66 193 66 q 298 66 380 135 q 462 204 489 312 q 441 286 398 273 q 356 260 302 260 q 259 260 221 272 q 183 283 154 307 q 125 331 109 367 q 93 402 93 453 q 93 573 177 657 q 261 742 385 742 q 493 742 551 675 q 609 609 609 495 z m 512 498 q 512 544 500 576 q 489 608 469 628 q 450 647 425 656 q 400 666 373 666 q 290 666 242 607 q 194 549 194 463 q 194 402 230 369 q 267 337 338 337 q 375 337 418 348 q 461 359 501 381 q 506 406 509 433 q 512 459 512 498 z"}," ":{"x_min":0,"x_max":352,"ha":352,"o":""},"I":{"x_min":0,"x_max":421,"ha":421,"o":"m 292 0 l 3 0 l 20 71 l 115 71 l 250 656 l 155 656 l 171 727 l 459 727 l 443 656 l 348 656 l 212 71 l 308 71 z"},"H":{"x_min":0,"x_max":751,"ha":751,"o":"m 758 727 l 591 0 l 494 0 l 577 357 l 214 357 l 131 0 l 35 0 l 202 727 l 299 727 l 233 439 l 596 439 l 662 727 z"},"4":{"x_min":0,"x_max":636,"ha":636,"o":"m 574 206 l 466 206 l 418 0 l 323 0 l 371 206 l 23 206 l 49 317 l 495 727 l 586 727 l 483 280 l 591 280 z m 388 280 l 464 609 l 108 280 z"},"~":{"x_min":0,"x_max":818,"ha":818,"o":"m 748 453 q 747 404 737 357 q 727 311 705 274 q 683 236 651 215 q 619 193 570 193 q 541 193 518 200 q 495 208 476 221 q 457 233 442 249 q 427 265 412 282 q 399 296 385 314 q 370 331 357 344 q 343 357 328 365 q 312 374 293 374 q 248 374 223 331 q 198 288 194 193 l 112 193 q 113 242 123 288 q 133 334 155 372 q 176 408 209 430 q 243 452 290 452 q 320 452 344 445 q 367 437 386 424 q 404 412 419 396 q 434 381 449 364 q 460 351 476 332 q 492 312 504 302 q 519 288 533 280 q 548 271 567 271 q 614 271 638 315 q 663 359 667 453 z"},"D":{"x_min":0,"x_max":766,"ha":766,"o":"m 742 448 q 742 329 681 223 q 621 116 516 58 q 451 23 384 12 q 316 0 231 0 l 35 0 l 203 727 l 372 727 q 451 727 516 716 q 581 705 635 669 q 687 634 714 578 q 742 522 742 448 z m 640 440 q 640 496 620 536 q 600 576 560 603 q 521 629 476 638 q 431 647 362 647 l 281 647 l 149 80 l 250 80 q 320 80 375 91 q 430 103 479 130 q 558 175 599 260 q 640 345 640 440 z"},"^":{"x_min":0,"x_max":818,"ha":818,"o":"m 752 334 l 655 334 l 433 640 l 211 333 l 115 333 l 403 727 l 464 727 z"},"0":{"x_min":0,"x_max":636,"ha":636,"o":"m 613 528 q 613 432 577 301 q 542 170 488 100 q 443 41 388 13 q 333 -15 261 -15 q 162 -15 113 38 q 65 90 65 198 q 65 286 99 418 q 133 551 190 627 q 234 686 290 714 q 347 742 418 742 q 517 742 565 689 q 613 636 613 528 z m 515 530 q 515 595 490 630 q 465 665 402 665 q 355 665 319 644 q 283 624 253 572 q 219 512 191 393 q 164 274 164 197 q 164 131 188 97 q 213 62 276 62 q 321 62 359 83 q 397 105 425 155 q 459 216 487 335 q 515 454 515 530 z"},"F":{"x_min":0,"x_max":575,"ha":575,"o":"m 648 645 l 281 645 l 232 434 l 548 434 l 529 352 l 213 352 l 132 0 l 34 0 l 202 727 l 667 727 z"},"`":{"x_min":0,"x_max":636,"ha":636,"o":"m 443 636 l 372 636 l 276 818 l 391 818 z"},"k":{"x_min":0,"x_max":587,"ha":587,"o":"m 528 0 l 417 0 l 243 240 l 164 176 l 124 0 l 31 0 l 207 760 l 299 760 l 186 271 l 506 545 l 626 545 l 315 288 z"},"u":{"x_min":0,"x_max":633,"ha":633,"o":"m 605 545 l 479 0 l 388 0 l 402 61 q 350 25 304 5 q 259 -15 209 -15 q 139 -15 99 20 q 60 56 60 124 q 60 140 62 156 q 64 171 68 191 l 149 545 l 241 545 l 169 235 q 165 216 161 191 q 157 167 157 153 q 157 111 178 90 q 200 69 251 69 q 287 69 334 90 q 380 111 420 138 l 514 545 z"},"]":{"x_min":0,"x_max":454,"ha":454,"o":"m 230 -191 l -23 -191 l -9 -125 l 160 -125 l 351 693 l 182 693 l 196 760 l 450 760 z"},"U":{"x_min":0,"x_max":732,"ha":732,"o":"m 649 292 q 630 210 601 153 q 572 96 523 56 q 479 20 426 2 q 374 -15 303 -15 q 188 -15 132 37 q 76 88 76 180 q 76 210 80 237 q 84 263 90 292 l 191 727 l 289 727 l 187 287 q 181 264 177 236 q 174 207 174 191 q 174 129 210 97 q 247 64 320 64 q 372 64 412 81 q 451 97 480 129 q 507 159 523 196 q 539 233 550 285 l 652 727 l 750 727 z"},"o":{"x_min":0,"x_max":607,"ha":607,"o":"m 563 353 q 563 279 541 212 q 519 145 478 95 q 435 43 379 14 q 324 -15 250 -15 q 152 -15 98 40 q 43 96 43 193 q 43 267 66 333 q 88 399 130 451 q 170 501 229 531 q 288 561 358 561 q 452 561 508 507 q 563 453 563 353 z m 414 146 q 440 186 454 237 q 468 288 468 345 q 468 414 436 449 q 403 484 343 484 q 296 484 258 461 q 221 438 193 399 q 167 360 153 309 q 139 257 139 201 q 139 134 171 98 q 204 62 264 62 q 311 62 349 84 q 387 106 414 146 z"},"N":{"x_min":0,"x_max":748,"ha":748,"o":"m 590 0 l 475 0 l 276 650 l 125 0 l 34 0 l 202 727 l 348 727 l 529 133 l 667 727 l 758 727 z"},"+":{"x_min":0,"x_max":818,"ha":818,"o":"m 737 279 l 471 279 l 471 13 l 390 13 l 390 279 l 124 279 l 124 357 l 390 357 l 390 624 l 471 624 l 471 357 l 737 357 z"},"G":{"x_min":0,"x_max":775,"ha":775,"o":"m 384 -14 q 234 -14 149 60 q 65 134 65 271 q 65 372 96 457 q 127 542 186 606 q 245 669 330 705 q 415 740 521 740 q 585 740 649 725 q 713 709 779 675 l 757 564 l 749 564 q 694 615 631 638 q 567 661 494 661 q 413 661 353 629 q 292 597 250 544 q 210 493 189 424 q 168 355 168 285 q 168 180 226 123 q 283 66 396 66 q 445 66 488 75 q 531 84 569 98 l 610 284 l 417 284 l 435 366 l 726 366 l 654 54 q 622 41 596 30 q 570 20 531 8 q 497 -1 461 -8 q 425 -14 384 -14 z"},"q":{"x_min":0,"x_max":623,"ha":623,"o":"m 596 545 l 423 -201 l 332 -201 l 393 62 q 346 29 305 9 q 263 -11 209 -11 q 132 -11 87 36 q 42 83 42 176 q 42 254 66 324 q 90 395 132 447 q 174 500 230 530 q 287 561 351 561 q 394 561 431 551 q 467 542 499 523 l 510 545 z m 481 447 q 449 464 417 473 q 386 481 350 481 q 298 481 258 456 q 219 431 191 390 q 166 351 152 297 q 138 242 138 191 q 138 132 163 103 q 189 73 247 73 q 288 73 331 94 q 374 114 410 139 z"},"d":{"x_min":0,"x_max":623,"ha":623,"o":"m 646 760 l 470 0 l 378 0 l 391 57 q 329 15 291 0 q 253 -15 209 -15 q 132 -15 87 34 q 42 83 42 176 q 42 254 66 324 q 90 395 132 447 q 174 500 230 530 q 287 561 351 561 q 394 561 431 551 q 467 542 499 523 l 554 760 z m 481 447 q 449 464 417 472 q 386 480 350 480 q 299 480 260 456 q 220 432 191 389 q 166 351 152 296 q 138 242 138 191 q 138 132 163 100 q 189 69 247 69 q 288 69 330 89 q 373 110 409 134 z"},"1":{"x_min":0,"x_max":636,"ha":636,"o":"m 470 0 l 76 0 l 92 71 l 242 71 l 356 565 l 205 565 l 219 628 q 303 628 350 652 q 396 675 412 729 l 488 729 l 336 71 l 487 71 z"},"5":{"x_min":0,"x_max":636,"ha":636,"o":"m 478 71 q 435 30 378 8 q 321 -15 244 -15 q 184 -15 131 0 q 79 14 44 32 l 63 126 l 70 126 q 101 104 152 85 q 203 66 258 66 q 349 66 405 119 q 460 171 460 257 q 460 290 448 312 q 435 334 414 348 q 392 361 362 367 q 332 373 298 373 q 255 373 212 367 q 169 360 139 354 l 225 727 l 661 727 l 642 645 l 300 645 l 254 445 q 274 448 293 449 q 312 451 332 451 q 442 451 503 403 q 564 356 564 274 q 564 216 542 163 q 520 110 478 71 z"}}}
